<?xml version="1.0" standalone="no"?>
<!DOCTYPE svg PUBLIC "-//W3C//DTD SVG 20010904//EN"
 "http://www.w3.org/TR/2001/REC-SVG-20010904/DTD/svg10.dtd">
<svg version="1.0" xmlns="http://www.w3.org/2000/svg"
 width="366.000000pt" height="366.000000pt" viewBox="0 0 366.000000 366.000000"
 preserveAspectRatio="xMidYMid meet">
<metadata>
Created by potrace 1.11, written by Peter Selinger 2001-2013
</metadata>
<g transform="translate(0.000000,366.000000) scale(0.100000,-0.100000)"
fill="#000000" stroke="none">
<path d="M1770 3613 c-834 -36 -1527 -626 -1689 -1439 -25 -127 -32 -202 -32
-350 0 -124 5 -179 27 -314 30 -185 119 -422 226 -598 29 -48 56 -91 60 -97 4
-5 27 -35 50 -65 66 -86 78 -99 172 -192 179 -178 402 -319 636 -403 89 -32
197 -63 245 -71 22 -3 42 -7 45 -9 3 -2 33 -7 65 -10 33 -4 69 -9 80 -11 32
-7 266 -6 342 1 37 3 113 15 168 25 685 132 1231 649 1394 1324 17 67 32 141
36 166 3 25 8 63 11 85 5 46 6 310 0 340 -2 11 -7 46 -11 79 -37 308 -187 648
-394 896 -306 366 -766 605 -1223 636 -134 9 -147 9 -208 7z m245 -77 c144
-19 226 -37 345 -76 377 -123 681 -356 904 -690 94 -140 194 -365 227 -509 6
-25 13 -55 15 -66 25 -108 38 -235 38 -375 -1 -95 -11 -237 -19 -250 -1 -3 -6
-26 -9 -51 -17 -124 -75 -298 -153 -454 -90 -183 -204 -337 -351 -477 -662
-631 -1702 -631 -2366 2 -254 242 -440 581 -500 915 -3 17 -8 41 -11 54 -31
154 -24 428 15 619 129 635 625 1154 1254 1312 105 26 142 33 246 46 25 3 46
7 47 8 5 5 270 -2 318 -8z"/>
<path d="M954 3077 c-58 -32 -41 -87 39 -127 36 -18 37 -57 1 -66 -14 -4 -36
-2 -49 4 -34 16 -41 -3 -10 -24 61 -40 148 24 111 81 -9 13 -32 32 -52 41 -42
20 -52 38 -33 60 9 11 22 14 46 9 19 -3 33 -2 33 4 0 23 -55 35 -86 18z"/>
<path d="M1718 3082 l-28 -3 0 -109 c0 -102 8 -137 26 -108 5 7 9 31 9 53 0
37 2 40 30 41 48 2 55 3 55 14 0 6 -20 10 -43 10 l-44 0 0 40 c0 39 1 40 33
37 34 -4 63 7 51 19 -8 8 -48 11 -89 6z"/>
<path d="M1904 3075 c-41 -17 -54 -36 -59 -86 -10 -92 32 -142 111 -133 42 5
83 40 85 75 1 10 2 29 3 42 3 31 -12 72 -32 90 -24 21 -73 27 -108 12z m86
-35 c25 -25 27 -105 4 -138 -32 -46 -113 -19 -116 39 -3 79 19 119 67 119 14
0 34 -9 45 -20z"/>
<path d="M2143 3075 c-36 -15 -50 -37 -59 -92 -13 -86 44 -145 122 -126 46 10
73 45 78 98 8 99 -58 155 -141 120z m87 -35 c15 -15 20 -33 20 -70 0 -59 -24
-90 -68 -90 -52 0 -80 57 -61 123 16 57 70 76 109 37z"/>
<path d="M2394 3083 c-12 -2 -32 -15 -45 -29 -20 -21 -24 -36 -24 -90 0 -77
21 -106 82 -109 72 -5 118 43 115 119 -3 84 -48 122 -128 109z m62 -31 c50
-33 41 -155 -13 -168 -61 -16 -100 29 -89 102 9 57 63 92 102 66z"/>
<path d="M2592 3082 c-22 -3 -23 -6 -20 -115 l3 -112 35 -1 c102 -2 141 43
131 151 -4 50 -78 88 -149 77z m100 -52 c20 -25 23 -77 7 -114 -12 -24 -35
-36 -76 -36 -22 0 -23 3 -23 89 l0 89 37 -3 c24 -2 44 -12 55 -25z"/>
<path d="M1145 3068 c-61 -170 -73 -208 -66 -212 10 -7 26 11 35 39 5 17 14
20 53 20 43 0 49 -3 57 -27 10 -27 31 -44 40 -30 2 4 -6 34 -19 67 -13 33 -31
81 -40 108 -13 33 -23 47 -37 47 -10 0 -21 -6 -23 -12z m51 -102 c6 -25 4 -26
-31 -26 -31 0 -36 3 -30 18 3 9 12 34 18 55 l12 38 12 -29 c7 -16 15 -41 19
-56z"/>
<path d="M1307 3073 c-2 -5 -3 -55 -3 -113 1 -85 4 -105 16 -105 12 0 15 17
15 88 -1 48 2 87 5 87 3 0 12 -17 19 -37 8 -21 25 -62 38 -92 29 -67 36 -62
87 59 38 93 40 91 36 -41 -1 -52 11 -82 24 -61 2 4 6 55 7 113 l3 104 -25 3
c-23 3 -28 -4 -60 -82 -19 -47 -37 -86 -40 -86 -3 0 -21 38 -39 85 -28 72 -36
85 -56 85 -12 0 -25 -3 -27 -7z"/>
<path d="M2405 2666 c-6 -7 -70 -86 -143 -176 -164 -200 -222 -282 -228 -318
-2 -15 2 -50 11 -77 l15 -50 -95 -140 c-52 -77 -105 -152 -117 -168 l-23 -27
-110 160 c-60 88 -111 167 -113 176 -2 8 1 20 7 27 20 25 24 111 7 175 -25
100 -62 161 -150 247 -91 90 -186 145 -263 152 -67 7 -86 -16 -91 -106 -8
-135 65 -317 168 -420 71 -70 136 -103 217 -110 l62 -6 120 -169 121 -169 -37
-51 c-158 -219 -233 -307 -354 -412 -60 -53 -119 -109 -131 -126 -20 -29 -21
-35 -10 -87 13 -63 37 -89 79 -85 15 1 40 2 55 3 49 2 76 44 139 216 32 86 68
158 121 245 56 93 162 250 168 250 6 0 98 -143 176 -271 53 -86 72 -130 134
-293 42 -109 74 -146 133 -147 86 -3 93 2 113 76 17 65 2 96 -78 167 -180 158
-268 256 -407 455 l-43 62 124 173 123 172 52 2 c62 1 92 19 138 82 61 84 277
451 273 465 -2 8 -65 -74 -142 -183 -170 -243 -178 -252 -194 -242 -9 6 12 44
76 138 49 71 121 176 160 233 39 58 69 107 66 110 -3 3 -8 0 -12 -6 -4 -6 -18
-25 -32 -43 -13 -17 -31 -42 -40 -55 -8 -13 -67 -96 -130 -184 -106 -147 -131
-174 -143 -153 -3 4 67 112 154 241 87 128 159 235 159 237 0 20 -38 -28 -175
-221 -88 -123 -165 -226 -172 -229 -35 -15 -6 39 118 219 77 110 146 212 154
228 16 28 8 38 -10 13z"/>
<path d="M650 1063 c-63 -42 -110 -78 -103 -80 6 -2 32 11 57 29 l47 32 22
-27 c12 -15 33 -28 47 -29 25 -2 79 27 81 43 1 5 2 15 3 22 2 10 -31 87 -37
87 -1 0 -54 -35 -117 -77z m130 21 c17 -30 7 -51 -33 -74 -25 -14 -28 -13 -54
13 -24 24 -26 29 -12 37 9 5 27 18 40 29 32 27 43 26 59 -5z"/>
<path d="M2880 1123 c0 -5 8 -21 18 -38 10 -16 23 -43 30 -58 l12 -28 -73 7
c-39 3 -68 2 -64 -2 4 -4 41 -11 82 -15 65 -6 82 -12 126 -44 27 -21 53 -35
56 -31 4 3 4 7 2 9 -92 64 -116 88 -143 145 -26 54 -46 78 -46 55z"/>
<path d="M819 1018 c-8 -7 -54 -46 -102 -87 -49 -40 -86 -75 -83 -78 3 -3 26
12 52 33 l46 38 19 -23 c27 -33 24 -44 -21 -85 -40 -36 -47 -46 -32 -46 15 0
82 70 82 85 0 8 3 15 8 16 69 7 111 61 86 110 -20 40 -39 52 -55 37z m51 -66
c0 -19 -46 -62 -68 -62 -10 0 -27 9 -38 21 -19 21 -19 21 25 61 l45 39 18 -23
c10 -13 18 -29 18 -36z"/>
<path d="M1567 1003 c-4 -3 -7 -18 -7 -31 0 -29 6 -27 12 3 2 11 14 23 28 26
l25 7 -26 1 c-14 0 -29 -2 -32 -6z"/>
<path d="M1643 1003 c-22 -8 -14 -48 13 -72 26 -22 29 -51 6 -59 -6 -2 -16 7
-21 20 -10 23 -10 23 -10 1 -1 -22 30 -40 49 -28 20 12 10 54 -16 71 -16 11
-24 24 -22 37 4 30 26 33 38 5 l10 -23 -3 25 c-2 24 -20 34 -44 23z"/>
<path d="M1712 1003 c9 -2 19 -12 21 -21 4 -16 5 -16 6 0 0 9 11 19 24 21 12
2 2 4 -23 4 -25 1 -37 -1 -28 -4z"/>
<path d="M1857 1003 c-4 -3 -7 -13 -7 -22 0 -11 3 -10 15 5 12 16 16 17 24 5
11 -17 5 -37 -21 -70 -28 -36 -24 -61 10 -60 23 2 24 2 5 6 -24 5 -31 27 -12
39 6 3 18 22 26 41 11 27 11 38 2 49 -12 15 -31 18 -42 7z"/>
<path d="M1925 999 c-9 -13 -8 -93 1 -121 8 -25 34 -19 45 10 6 15 5 21 -1 17
-6 -3 -10 -13 -10 -21 0 -9 -6 -14 -12 -11 -17 5 -18 119 -1 124 6 2 14 -6 16
-19 5 -21 5 -21 4 2 -2 26 -30 39 -42 19z"/>
<path d="M1996 994 c-9 -24 -7 -31 4 -14 7 11 10 -6 11 -55 1 -38 4 -57 6 -42
4 23 9 28 24 24 16 -4 18 -3 9 8 -9 11 -7 19 12 38 12 13 24 31 24 40 3 29
-10 19 -30 -24 -27 -56 -36 -57 -36 -5 0 46 -12 61 -24 30z"/>
<path d="M2747 942 c-15 -15 -27 -31 -27 -34 0 -3 45 -45 100 -92 55 -47 100
-82 100 -77 0 5 -18 25 -40 45 -41 37 -44 58 -9 76 28 15 36 13 79 -26 22 -20
40 -32 40 -26 0 17 -69 72 -91 72 -12 0 -23 10 -29 26 -13 33 -49 63 -76 64
-11 0 -32 -13 -47 -28z m109 -35 c7 -22 -14 -67 -30 -67 -6 0 -29 16 -51 35
l-40 35 28 25 c28 25 29 25 58 8 16 -10 32 -26 35 -36z"/>
<path d="M2077 953 c-10 -9 -9 -23 1 -23 5 0 9 7 9 15 0 17 -1 18 -10 8z"/>
<path d="M1730 940 c0 -5 5 -10 11 -10 5 0 7 5 4 10 -3 6 -8 10 -11 10 -2 0
-4 -4 -4 -10z"/>
<path d="M1966 933 c-6 -14 -5 -15 5 -6 7 7 10 15 7 18 -3 3 -9 -2 -12 -12z"/>
<path d="M1560 932 c0 -5 14 -7 30 -4 17 2 30 6 30 8 0 2 -13 4 -30 4 -16 0
-30 -4 -30 -8z"/>
<path d="M835 837 c-44 -45 -84 -88 -89 -95 -8 -14 38 -72 58 -72 5 0 -4 15
-22 33 l-32 33 38 37 c21 20 42 37 48 37 5 0 18 -11 28 -25 10 -14 24 -25 29
-25 6 0 -3 15 -21 33 l-32 33 39 38 c39 38 40 39 65 22 15 -9 26 -21 26 -26 0
-6 5 -10 12 -10 7 0 -3 16 -22 35 -19 19 -36 35 -39 34 -4 0 -42 -37 -86 -82z"/>
<path d="M2072 898 c5 -35 15 -46 14 -14 -1 14 -5 29 -10 33 -4 4 -6 -4 -4
-19z"/>
<path d="M1561 888 c-1 -25 2 -28 32 -27 29 2 29 2 5 6 -18 3 -28 12 -31 26
-4 18 -5 17 -6 -5z"/>
<path d="M2671 859 c-18 -17 -31 -34 -29 -38 2 -5 42 -50 89 -100 l87 -92 36
32 c20 17 34 34 31 37 -3 3 -19 -8 -36 -24 l-30 -29 -41 44 -40 45 34 28 c18
15 28 28 23 28 -6 0 -22 -11 -36 -24 l-26 -24 -38 38 c-35 36 -43 70 -16 70 6
0 15 9 21 20 15 27 8 25 -29 -11z"/>
<path d="M916 739 c-42 -55 -76 -105 -74 -110 2 -6 28 22 57 61 30 39 55 69
57 67 2 -2 -12 -42 -31 -90 -18 -48 -30 -87 -26 -87 5 0 19 8 32 18 64 48 129
93 129 89 0 -2 -25 -35 -55 -73 -30 -38 -50 -71 -44 -73 6 -2 15 3 20 10 12
21 38 55 96 128 29 36 49 67 43 69 -5 2 -49 -26 -97 -62 -48 -35 -89 -61 -91
-56 -2 4 15 52 38 105 22 54 40 99 40 101 0 18 -28 -11 -94 -97z"/>
<path d="M2617 813 c-3 -4 15 -53 39 -107 24 -55 43 -100 42 -102 -2 -1 -43
29 -91 68 -49 38 -91 67 -94 64 -4 -3 5 -14 18 -25 13 -10 60 -48 104 -85 98
-81 112 -85 81 -20 -8 16 -31 70 -51 119 -41 99 -41 100 -48 88z"/>
<path d="M1087 634 c-72 -111 -84 -134 -71 -134 12 0 147 217 142 229 -1 5
-34 -38 -71 -95z"/>
<path d="M2480 716 c0 -3 22 -37 48 -78 26 -40 58 -90 71 -110 12 -21 27 -38
33 -38 10 0 -3 23 -85 153 -42 65 -67 92 -67 73z"/>
<path d="M1122 607 c-29 -56 -52 -110 -52 -119 0 -10 12 -25 26 -35 23 -15 29
-15 51 -2 27 15 142 219 124 219 -5 0 -34 -45 -63 -100 -54 -102 -67 -115 -99
-105 -30 10 -23 41 31 140 51 95 55 105 43 105 -5 0 -32 -46 -61 -103z"/>
<path d="M2380 653 c0 -7 117 -222 125 -231 2 -2 25 9 51 24 26 15 42 30 36
32 -7 2 -27 -6 -46 -17 l-33 -21 -59 110 c-52 97 -74 127 -74 103z"/>
<path d="M1245 525 c-27 -69 -45 -128 -42 -132 4 -3 12 7 18 23 6 16 22 56 35
89 19 50 30 64 25 33 0 -4 -3 -46 -6 -95 l-5 -88 22 29 c13 15 42 53 66 83 23
31 42 53 42 50 0 -6 -60 -158 -68 -171 -2 -5 1 -7 8 -4 13 4 109 238 103 251
-5 8 -24 -14 -101 -116 -44 -58 -56 -66 -54 -37 1 14 14 149 17 178 8 62 -13
31 -60 -93z"/>
<path d="M2310 632 c-19 -9 -36 -17 -38 -18 -4 -2 30 -83 77 -186 l31 -67 40
18 c22 10 44 22 48 26 6 7 -2 6 -63 -11 -17 -4 -25 3 -41 40 -24 50 -23 52 26
73 19 8 30 17 24 19 -6 3 -26 -2 -44 -10 l-34 -14 -23 51 c-13 27 -22 51 -21
52 2 1 18 7 36 15 35 13 52 30 30 29 -7 0 -29 -8 -48 -17z"/>
<path d="M2168 583 c-10 -2 -18 -11 -18 -19 0 -13 68 -230 77 -246 6 -12 63
13 78 35 16 23 14 40 -17 132 -34 103 -51 116 -120 98z m97 -83 c14 -37 28
-84 32 -103 5 -32 2 -37 -26 -51 -25 -13 -32 -14 -36 -4 -3 7 -20 59 -39 115
l-33 102 26 9 c39 14 48 6 76 -68z"/>
<path d="M1539 549 c0 -8 -2 -21 -4 -29 -1 -8 -5 -31 -9 -50 -3 -19 -10 -58
-15 -86 -5 -28 -11 -55 -12 -60 -1 -5 -1 -16 0 -24 3 -22 19 21 26 72 4 24 8
44 9 45 1 1 18 -2 39 -7 21 -4 39 -4 43 1 3 5 -13 12 -36 15 -44 7 -48 18 -30
85 10 36 11 37 47 28 34 -7 53 -5 42 5 -2 2 -25 7 -51 11 -37 6 -48 4 -49 -6z"/>
<path d="M1957 542 c-17 -3 -18 -11 -13 -70 6 -56 15 -117 24 -154 1 -5 2 -18
2 -29 0 -19 4 -21 36 -16 50 8 64 23 64 70 0 57 -20 163 -34 182 -12 17 -47
24 -79 17z m59 -20 c17 -11 26 -49 38 -154 6 -53 -9 -78 -48 -78 -21 0 -24 6
-30 58 -4 31 -8 68 -11 82 -12 74 -12 89 -2 94 18 7 41 6 53 -2z"/>
<path d="M1676 525 c-17 -18 -24 -52 -30 -148 -4 -59 -2 -71 17 -91 19 -20 27
-22 53 -15 40 11 43 21 51 139 5 94 5 98 -18 114 -29 20 -53 20 -73 1z m72
-22 c9 -17 7 -101 -3 -168 -7 -47 -50 -70 -75 -40 -15 18 -8 172 9 204 14 26
57 28 69 4z"/>
<path d="M1812 518 c-16 -16 -16 -195 1 -228 16 -33 59 -38 86 -11 19 19 20
30 17 121 -2 59 -9 107 -16 115 -15 18 -71 20 -88 3z m72 -14 c15 -14 20 -62
18 -172 0 -60 -61 -78 -80 -23 -15 45 -9 190 8 201 22 14 36 12 54 -6z"/>
</g>
</svg>
